<svg width="18" height="20" xmlns="http://www.w3.org/2000/svg"><title>background</title><path fill="none" d="M-1-1h20v22H-1z"/><title>Layer 1</title><path stroke="null" fill="#e02222" fill-rule="evenodd" d="M14.53 11.618c-.543-.584-1.264-.971-2.165-1.16v-.08a3.137 3.137 0 0 0 1.474-1.223c.356-.555.534-1.189.534-1.9 0-.614-.13-1.156-.387-1.626-.258-.47-.648-.846-1.17-1.126a4.68 4.68 0 0 0-1.553-.515c-.552-.081-1.363-.122-2.434-.122H3.678V18.45h5.837c1.012 0 1.846-.092 2.502-.274a5.117 5.117 0 0 0 1.807-.92 3.91 3.91 0 0 0 1.107-1.362c.274-.549.411-1.185.411-1.91 0-.992-.27-1.78-.813-2.365zM7.321 6.54h.254c.653 0 1.144.005 1.474.014.33.01.615.067.857.172.255.111.442.29.563.538.12.249.181.49.181.725 0 .32-.056.601-.166.842-.112.242-.314.432-.608.568a2.115 2.115 0 0 1-.778.206c-.252.014-.69.02-1.317.02h-.46V6.54zm4.02 8.32c-.154.277-.397.488-.73.631a3.081 3.081 0 0 1-1.117.265 65.33 65.33 0 0 1-1.978.02H7.32v-3.654h.676c.653 0 1.173.005 1.562.015.388.01.694.057.916.142.365.13.64.323.822.578.183.254.275.607.275 1.057 0 .353-.077.668-.23.946z"/></svg>